<!DOCTYPE svg PUBLIC "-//W3C//DTD SVG 1.1//EN" "http://www.w3.org/Graphics/SVG/1.1/DTD/svg11.dtd">
<!-- Uploaded to: SVG Repo, www.svgrepo.com, Transformed by: SVG Repo Mixer Tools -->
<svg version="1.1" id="Layer_1" xmlns="http://www.w3.org/2000/svg" xmlns:xlink="http://www.w3.org/1999/xlink" viewBox="0 0 512 512" xml:space="preserve" width="800px" height="800px" fill="#000000">
<g id="SVGRepo_bgCarrier" stroke-width="0"/>
<g id="SVGRepo_tracerCarrier" stroke-linecap="round" stroke-linejoin="round"/>
<g id="SVGRepo_iconCarrier"> <circle style="fill:#00447D;" cx="256" cy="256" r="256"/> <path style="fill:#062964;" d="M512,256c0-13.638-1.077-27.022-3.131-40.083L403.028,110.077l-69.741,72.082L114.833,396.016 l114.619,114.619C238.18,511.535,247.036,512,256,512C397.384,512,512,397.384,512,256z"/> <path style="fill:#FFFFFF;" d="M405.759,126.114L314.094,344.7c-4.174,9.954-17.108,12.497-24.74,4.865L162.433,222.644 c-7.632-7.632-5.089-20.566,4.865-24.74l218.586-91.665C398.419,100.983,411.017,113.58,405.759,126.114z"/> <path style="fill:#D0D1D3;" d="M225.894,286.105l63.46,63.46c7.632,7.632,20.566,5.089,24.74-4.865l91.665-218.586 c2.629-6.266,0.793-12.55-3.265-16.61L225.894,286.105z"/> <rect x="213.397" y="211.182" transform="matrix(-0.7071 -0.7071 0.7071 -0.7071 183.305 648.1144)" style="fill:#97CCD0;" width="24.969" height="149.823"/> <rect x="224.063" y="215.595" transform="matrix(0.7071 0.7071 -0.7071 0.7071 272.8741 -77.7626)" style="fill:#00BCCE;" width="12.484" height="149.823"/> <path style="fill:#FF764C;" d="M120.668,401.851l-10.523-10.523c-6.846-6.846-6.846-17.944,0-24.79l63.491-63.491 c6.846-6.846,17.944-6.846,24.791,0l10.523,10.523c6.846,6.846,6.846,17.944,0,24.79l-63.491,63.491 C138.614,408.697,127.514,408.697,120.668,401.851z"/> <path style="fill:#FF450C;" d="M203.69,308.308l-88.281,88.281l5.261,5.261c6.846,6.846,17.944,6.846,24.79,0l63.491-63.491 c6.846-6.846,6.846-17.944,0-24.791L203.69,308.308z"/> </g>
</svg>