<!DOCTYPE svg PUBLIC "-//W3C//DTD SVG 1.1//EN" "http://www.w3.org/Graphics/SVG/1.1/DTD/svg11.dtd">
<!-- Uploaded to: SVG Repo, www.svgrepo.com, Transformed by: SVG Repo Mixer Tools -->
<svg fill="#ffffff" height="800px" width="800px" version="1.1" id="Layer_1" xmlns="http://www.w3.org/2000/svg" xmlns:xlink="http://www.w3.org/1999/xlink" viewBox="0 0 512 512" xml:space="preserve" transform="matrix(-1, 0, 0, 1, 0, 0)">
<g id="SVGRepo_bgCarrier" stroke-width="0"/>
<g id="SVGRepo_tracerCarrier" stroke-linecap="round" stroke-linejoin="round"/>
<g id="SVGRepo_iconCarrier"> <g> <g> <path d="M401.067,294.4c-23.526,0-42.667,19.14-42.667,42.667c0,23.526,19.14,42.667,42.667,42.667 c23.526,0,42.667-19.14,42.667-42.667C443.733,313.54,424.593,294.4,401.067,294.4z M401.067,362.667 c-14.114,0-25.6-11.486-25.6-25.6s11.486-25.6,25.6-25.6c14.114,0,25.6,11.486,25.6,25.6S415.181,362.667,401.067,362.667z"/> </g> </g> <g> <g> <path d="M102.4,294.4c-23.526,0-42.667,19.14-42.667,42.667c0,23.526,19.14,42.667,42.667,42.667 c23.526,0,42.667-19.14,42.667-42.667C145.067,313.54,125.926,294.4,102.4,294.4z M102.4,362.667c-14.114,0-25.6-11.486-25.6-25.6 s11.486-25.6,25.6-25.6s25.6,11.486,25.6,25.6S116.514,362.667,102.4,362.667z"/> </g> </g> <g> <g> <path d="M509.5,288.367l-6.033-6.033V140.8c0-4.71-3.814-8.533-8.533-8.533H221.867c-1.946,0-3.814,0.657-5.333,1.869 l-84.07,67.251L22.391,235.298C16.853,237.542,0,244.386,0,337.067c0,4.71,3.814,8.533,8.533,8.533h25.6 c4.719,0,8.533-3.823,8.533-8.533c0-32.939,26.803-59.733,59.733-59.733c32.93,0,59.733,26.795,59.733,59.733 c0,4.71,3.814,8.533,8.533,8.533H332.8c4.719,0,8.533-3.823,8.533-8.533c0-32.939,26.803-59.733,59.733-59.733 c32.93,0,59.733,26.795,59.733,59.733c0,4.71,3.814,8.533,8.533,8.533h34.133c4.719,0,8.533-3.823,8.533-8.533V294.4 C512,292.139,511.104,289.963,509.5,288.367z M224.862,149.333h39.671v51.2H160.862L224.862,149.333z M494.933,328.533h-17.544 c-4.258-38.349-36.855-68.267-76.322-68.267s-72.064,29.918-76.322,68.267H178.722c-4.258-38.349-36.855-68.267-76.322-68.267 s-72.064,29.918-76.322,68.267h-8.96c0.29-22.835,1.732-39.356,3.55-51.2h13.466c4.719,0,8.533-3.823,8.533-8.533 s-3.814-8.533-8.533-8.533h-9.779c1.707-5.478,3.345-8.26,4.454-9.122L137.813,217.6h135.253c4.719,0,8.533-3.823,8.533-8.533 v-59.733h204.8v102.4h-8.533c-4.719,0-8.533,3.823-8.533,8.533s3.814,8.533,8.533,8.533h8.533v17.067 c0,2.261,0.896,4.437,2.5,6.033l6.033,6.033V328.533z"/> </g> </g> </g>
</svg>